<svg width="30" height="30" viewBox="0 0 30 30" fill="none" xmlns="http://www.w3.org/2000/svg">
<g clip-path="url(#clip0)">
<path d="M29.3355 15.5745L25.2885 6.3225C24.8415 5.2995 23.616 4.4985 22.5 4.4985H7.5C6.384 4.4985 5.1585 5.2995 4.7115 6.3225L0.6645 15.5745C0.2925 16.4265 0 17.82 0 18.75V24.75C0 25.9905 1.0095 27 2.25 27H27.75C28.9905 27 30 25.9905 30 24.75V18.75C30 17.8215 29.709 16.4265 29.3355 15.5745ZM6.0855 6.9255C6.297 6.441 6.972 6 7.5 6H22.5C23.028 6 23.703 6.441 23.9145 6.9255L27.9615 16.1775C28.0065 16.281 28.0515 16.3995 28.095 16.527C27.9825 16.509 27.867 16.5 27.75 16.5H18.75C18.336 16.5 18 16.836 18 17.25V18C18 19.6545 16.6545 21 15 21C13.3455 21 12 19.6545 12 18V17.25C12 16.836 11.664 16.5 11.25 16.5H2.25C2.133 16.5 2.0175 16.509 1.905 16.527C1.9485 16.3995 1.992 16.281 2.0385 16.1775L6.0855 6.9255V6.9255ZM28.5 24.75C28.5 25.164 28.164 25.5 27.75 25.5H2.25C1.836 25.5 1.5 25.164 1.5 24.75V18.75C1.5 18.336 1.836 18 2.25 18H10.5C10.5 20.481 12.519 22.5 15 22.5C17.481 22.5 19.5 20.481 19.5 18H27.75C28.164 18 28.5 18.336 28.5 18.75V24.75Z" fill="#0A1B33"/>
</g>
<defs>
<clipPath id="clip0">
<rect width="30" height="30" fill="white"/>
</clipPath>
</defs>
</svg>
