<svg width="20" height="20" viewBox="0 0 20 20" fill="none" xmlns="http://www.w3.org/2000/svg">
<g clip-path="url(#clip0)">
<path d="M16.006 16H12.5C12.224 16 12 15.776 12 15.5C12 15.224 12.224 15 12.5 15H16.006C17.657 15 19 13.657 19 12.006C19 10.355 17.657 9.012 16.006 9.012C15.654 9.012 15.31 9.072 14.983 9.191C14.765 9.27 14.521 9.189 14.394 8.995C14.267 8.801 14.29 8.545 14.45 8.377C14.805 8.004 15 7.515 15 7C15 5.897 14.103 5 13 5C12.358 5 11.771 5.297 11.39 5.814C11.161 6.124 11.028 6.491 11.004 6.875C10.991 7.087 10.845 7.268 10.64 7.326C10.435 7.384 10.217 7.305 10.095 7.131L10.09 7.124C9.98302 6.972 9.86402 6.822 9.73902 6.682C8.79002 5.614 7.42702 5.001 5.99902 5.001C3.24202 5.001 0.999023 7.244 0.999023 10.001C0.999023 12.758 3.24202 15.001 5.99902 15.001H8.49902C8.77502 15.001 8.99902 15.225 8.99902 15.501C8.99902 15.777 8.77502 16.001 8.49902 16.001H5.99902C2.69102 16.001 -0.000976562 13.309 -0.000976562 10.001C-0.000976562 6.693 2.69102 4.001 5.99902 4.001C7.60202 4.001 9.13602 4.644 10.26 5.776C10.347 5.581 10.456 5.395 10.584 5.221C11.148 4.457 12.051 4.001 12.999 4.001C14.653 4.001 15.999 5.347 15.999 7.001C15.999 7.352 15.938 7.695 15.823 8.018C15.884 8.015 15.945 8.014 16.006 8.014C18.208 8.014 20 9.806 20 12.008C20 14.21 18.208 16.002 16.006 16.002V16Z" fill="#6E7279"/>
<path d="M12.854 12.146L10.854 10.146C10.659 9.951 10.342 9.951 10.147 10.146L8.14698 12.146C7.95198 12.341 7.95198 12.658 8.14698 12.853C8.34198 13.048 8.65898 13.048 8.85398 12.853L9.99998 11.707V15.5C9.99998 15.776 10.224 16 10.5 16C10.776 16 11 15.776 11 15.5V11.707L12.146 12.853C12.244 12.951 12.372 12.999 12.5 12.999C12.628 12.999 12.756 12.95 12.854 12.853C13.049 12.658 13.049 12.341 12.854 12.146Z" fill="#6E7279"/>
</g>
<defs>
<clipPath id="clip0">
<rect width="20" height="20" fill="white"/>
</clipPath>
</defs>
</svg>
