<svg width="20" height="20" viewBox="0 0 20 20" fill="none" xmlns="http://www.w3.org/2000/svg">
<g clip-path="url(#clip0)">
<path d="M16 16H6.5C6.224 16 6 15.776 6 15.5C6 15.224 6.224 15 6.5 15H16C17.654 15 19 13.654 19 12C19 10.346 17.654 8.99999 16 8.99999C15.657 8.99999 15.32 9.05699 15 9.16999C14.783 9.24699 14.542 9.16499 14.416 8.97299C14.29 8.78099 14.311 8.52699 14.467 8.35799C14.811 7.98699 15 7.50499 15 6.99899C15 5.89599 14.103 4.99899 13 4.99899C11.945 4.99899 11.069 5.82199 11.004 6.87399C10.991 7.08599 10.845 7.26699 10.641 7.32399C10.437 7.38099 10.218 7.30399 10.096 7.12999C9.159 5.79599 7.628 4.99899 6 4.99899C3.243 4.99899 1 7.24199 1 9.99899C1 10.151 1.007 10.304 1.02 10.454C1.045 10.729 0.842 10.972 0.567 10.997C0.292 11.022 0.049 10.819 0.024 10.544C0.008 10.364 0 10.181 0 9.99899C0 6.69099 2.692 3.99899 6 3.99899C7.611 3.99899 9.143 4.64899 10.261 5.77499C10.732 4.72499 11.788 3.99899 13 3.99899C14.654 3.99899 16 5.34499 16 6.99899C16 7.34499 15.941 7.68399 15.828 8.00299C15.885 8.00099 15.943 7.99899 16 7.99899C18.206 7.99899 20 9.79299 20 11.999C20 14.205 18.206 15.999 16 15.999V16Z" fill="#00D34F"/>
<path d="M3.50001 15.5C3.37201 15.5 3.24401 15.451 3.14601 15.354L1.14601 13.354C0.951006 13.159 0.951006 12.842 1.14601 12.647C1.34101 12.452 1.65801 12.452 1.85301 12.647L3.49901 14.293L8.14501 9.647C8.34001 9.452 8.65701 9.452 8.85201 9.647C9.04701 9.842 9.04701 10.159 8.85201 10.354L3.85201 15.354C3.75401 15.452 3.62601 15.5 3.49801 15.5H3.50001Z" fill="#00D34F"/>
</g>
<defs>
<clipPath id="clip0">
<rect width="20" height="20" fill="white"/>
</clipPath>
</defs>
</svg>
