<svg width="25" height="25" viewBox="0 0 25 25" fill="none" xmlns="http://www.w3.org/2000/svg">
<path fill-rule="evenodd" clip-rule="evenodd" d="M12.5 24.4792C12.5 24.4792 3.125 19.5745 3.125 9.89583C3.125 4.71822 7.3224 0.520828 12.5 0.520828C17.6776 0.520828 21.875 4.71822 21.875 9.89583C21.875 19.5745 12.5 24.4792 12.5 24.4792ZM12.5 1.56249C7.90521 1.56249 4.16667 5.30104 4.16667 9.89583C4.16667 17.5823 10.6573 22.1359 12.5016 23.2745C14.3474 22.1406 20.8333 17.6068 20.8333 9.89583C20.8333 5.30104 17.0948 1.56249 12.5 1.56249ZM12.5 14.5833C9.91094 14.5833 7.8125 12.4849 7.8125 9.89583C7.8125 7.30677 9.91094 5.20833 12.5 5.20833C15.0891 5.20833 17.1875 7.30677 17.1875 9.89583C17.1875 12.4849 15.0891 14.5833 12.5 14.5833ZM12.5 6.25C10.4865 6.25 8.85417 7.88229 8.85417 9.89583C8.85417 11.9094 10.4865 13.5417 12.5 13.5417C14.5135 13.5417 16.1458 11.9094 16.1458 9.89583C16.1458 7.88229 14.5135 6.25 12.5 6.25Z" fill="#0A1B33"/>
</svg>
