<svg width="45" height="32" viewBox="0 0 45 32" fill="none" xmlns="http://www.w3.org/2000/svg">
<rect width="45" height="31.1538" rx="8" fill="#0A1B33"/>
<path fill-rule="evenodd" clip-rule="evenodd" d="M37.3846 15.3268C37.3846 20.3503 33.3587 24.4227 28.3926 24.4227C23.4265 24.4227 19.4006 20.3503 19.4006 15.3268C19.4006 10.3032 23.4265 6.23077 28.3926 6.23077C33.3587 6.23077 37.3846 10.3032 37.3846 15.3268Z" fill="#F79F1A"/>
<path fill-rule="evenodd" clip-rule="evenodd" d="M26.2916 15.3268C26.2916 20.3503 22.2657 24.4227 17.2996 24.4227C12.3335 24.4227 8.30762 20.3503 8.30762 15.3268C8.30762 10.3032 12.3335 6.23077 17.2996 6.23077C22.2657 6.23077 26.2916 10.3032 26.2916 15.3268Z" fill="#EA001B"/>
<path fill-rule="evenodd" clip-rule="evenodd" d="M22.8462 8.16632C20.7481 9.8315 19.4014 12.4191 19.4014 15.3259C19.4014 18.2327 20.7481 20.8223 22.8462 22.4874C24.9442 20.8223 26.291 18.2327 26.291 15.3259C26.291 12.4191 24.9442 9.8315 22.8462 8.16632Z" fill="#FF5F01"/>
</svg>
