<svg width="120" height="120" viewBox="0 0 120 120" fill="none" xmlns="http://www.w3.org/2000/svg">
<path d="M119.974 111.532L112.943 72.7673C112.77 71.8101 111.853 71.1747 110.896 71.3484C109.939 71.5218 109.304 72.4387 109.477 73.3956L112.45 89.7861L89.5323 63.1659L104.946 59.7258L107.228 60.9963L108.219 66.461C108.393 67.4182 109.309 68.0531 110.267 67.8799C111.224 67.7064 111.859 66.7896 111.686 65.8326L110.546 59.5481C110.452 59.0292 110.13 58.5799 109.669 58.3235L106.073 56.3217C106.073 56.3217 106.073 56.3217 106.073 56.3217L94.7089 49.9957H94.7087L85.9403 45.1147C85.94 45.1147 85.9398 45.1144 85.9398 45.1144C85.9391 45.1142 85.9386 45.1137 85.9379 45.1133C85.8702 45.0758 85.8008 45.0434 85.7298 45.0155C85.7076 45.0068 85.6848 45.001 85.6621 44.9933C85.6126 44.9759 85.5629 44.9593 85.5126 44.9464C85.484 44.9391 85.4551 44.9349 85.4261 44.9293C85.3808 44.9204 85.3354 44.9115 85.2897 44.9061C85.2587 44.9023 85.228 44.9011 85.1968 44.8993C85.1525 44.8965 85.1083 44.8941 85.064 44.8946C85.0323 44.8948 85.0009 44.8972 84.9693 44.899C84.9257 44.9018 84.8821 44.9058 84.8385 44.9119C84.8069 44.9164 84.7752 44.922 84.7438 44.9283C84.7011 44.9368 84.659 44.9466 84.6168 44.9581C84.5851 44.9668 84.5537 44.9761 84.5226 44.9865C84.4818 45.0003 84.4415 45.016 84.4014 45.0329C84.3704 45.046 84.3397 45.0589 84.309 45.0739C84.2957 45.0804 84.2819 45.0849 84.2687 45.0917L80.245 47.1891C83.2384 41.6075 84.7506 36.2016 84.7506 31.03C84.7506 17.4445 73.698 6.39185 60.1125 6.39185C46.527 6.39185 35.4758 17.4445 35.4758 31.03C35.4758 36.2518 37.0161 41.7125 40.0681 47.3518L35.7324 45.0917C35.7191 45.0847 35.7048 45.08 35.6912 45.0734C35.6617 45.0589 35.6312 45.0462 35.6012 45.0336C35.5606 45.0165 35.5196 45.0005 35.4781 44.9865C35.4474 44.9761 35.4163 44.967 35.3851 44.9583C35.3429 44.9468 35.3005 44.9368 35.2578 44.9283C35.2262 44.922 35.1943 44.9164 35.1624 44.9119C35.1195 44.9058 35.0764 44.9021 35.0333 44.8993C35.001 44.8972 34.9686 44.8951 34.9365 44.8946C34.8934 44.8941 34.8505 44.8965 34.8074 44.899C34.775 44.9011 34.7427 44.9023 34.7103 44.9063C34.6665 44.9115 34.6231 44.9201 34.5798 44.9286C34.5491 44.9347 34.5181 44.9391 34.4877 44.9468C34.4396 44.959 34.3925 44.9752 34.3454 44.9914C34.3208 44.9998 34.2957 45.0064 34.2711 45.016C34.2003 45.0439 34.1312 45.0762 34.0637 45.1135C34.063 45.1137 34.0625 45.1142 34.0618 45.1147C34.0616 45.1147 34.0616 45.1149 34.0613 45.1149L10.3326 58.3235C9.87184 58.5799 9.55028 59.0292 9.45653 59.5481L2.77288 96.3999C2.59945 97.3569 3.2346 98.2737 4.19178 98.4472C5.1492 98.6213 6.0656 97.9855 6.23904 97.0283L8.24411 85.9726L31.0396 73.9225L29.2063 97.5929L4.09147 108.87L4.9753 103.995C5.14873 103.038 4.51381 102.121 3.55663 101.948C2.60015 101.775 1.68304 102.409 1.50937 103.366L0.0283621 111.533C-0.0883562 112.176 0.161018 112.831 0.675703 113.234C0.991405 113.481 1.37461 113.608 1.76132 113.608C2.00578 113.608 2.25163 113.557 2.48249 113.453L30.8811 100.702L59.2678 113.448C59.2685 113.448 59.2692 113.449 59.2699 113.449L59.2795 113.453C59.2955 113.46 59.3121 113.465 59.3285 113.472C59.3545 113.483 59.3808 113.493 59.4075 113.503C59.433 113.512 59.4588 113.521 59.4851 113.529C59.502 113.534 59.5188 113.539 59.5357 113.543C59.5577 113.549 59.5795 113.555 59.602 113.56C59.6386 113.569 59.6756 113.575 59.7124 113.581C59.73 113.584 59.7473 113.588 59.7652 113.591C59.7771 113.592 59.7891 113.594 59.801 113.595C59.8598 113.602 59.9194 113.606 59.9784 113.606C59.9859 113.606 59.9934 113.608 60.0009 113.608C60.0047 113.608 60.0084 113.607 60.0122 113.607C60.0834 113.607 60.1542 113.601 60.2252 113.592C60.2339 113.591 60.2428 113.591 60.2517 113.59C60.2651 113.588 60.2782 113.583 60.2918 113.581C60.3469 113.572 60.4019 113.56 60.4563 113.545C60.4713 113.541 60.4866 113.539 60.5016 113.535C60.5032 113.534 60.5046 113.534 60.5062 113.534C60.5112 113.532 60.5156 113.53 60.5205 113.528C60.589 113.507 60.6562 113.483 60.7226 113.453L89.1203 100.702L117.519 113.453C117.546 113.465 117.574 113.474 117.602 113.485C117.63 113.496 117.657 113.508 117.686 113.517C117.722 113.529 117.76 113.539 117.798 113.548C117.821 113.554 117.843 113.562 117.867 113.567C117.912 113.576 117.958 113.583 118.004 113.589C118.02 113.591 118.036 113.595 118.052 113.597C118.115 113.604 118.177 113.607 118.24 113.607H118.24C118.241 113.607 118.241 113.607 118.241 113.607C118.326 113.607 118.412 113.599 118.497 113.586C118.517 113.583 118.537 113.58 118.556 113.576C118.64 113.561 118.724 113.542 118.806 113.513C118.811 113.512 118.817 113.509 118.822 113.507C118.876 113.488 118.93 113.468 118.983 113.442C118.999 113.435 119.012 113.425 119.027 113.417C119.072 113.395 119.114 113.369 119.157 113.343C119.2 113.317 119.242 113.291 119.282 113.261C119.296 113.25 119.311 113.243 119.325 113.233C119.356 113.209 119.383 113.181 119.412 113.154C119.435 113.134 119.46 113.114 119.482 113.092C119.535 113.039 119.584 112.983 119.629 112.925C119.638 112.914 119.648 112.904 119.656 112.893C119.709 112.822 119.755 112.747 119.796 112.669C119.808 112.647 119.816 112.624 119.827 112.601C119.854 112.544 119.879 112.487 119.9 112.427C119.911 112.397 119.919 112.366 119.928 112.335C119.944 112.281 119.958 112.225 119.968 112.169C119.974 112.136 119.98 112.104 119.984 112.071C119.992 112.011 119.995 111.95 119.997 111.89C119.998 111.861 120 111.832 119.999 111.803C119.998 111.713 119.99 111.623 119.974 111.532ZM89.0146 50.8573L87.2089 51.2796L87.0934 49.7878L89.0146 50.8573ZM85.1722 70.5977L77.8166 64.8543C77.3076 64.4571 76.6223 64.3699 76.0298 64.6275L61.7695 70.8342V68.9041C62.835 68.0362 65.2558 65.9901 68.1574 63.0536L84.0472 56.0731L85.1722 70.5977ZM83.534 49.4478L83.759 52.3521L73.8325 56.7131C74.8181 55.4913 75.737 54.2761 76.5899 53.0674L83.534 49.4478ZM36.4681 49.4478L43.7689 53.2535C44.8501 54.7739 46.0344 56.3053 47.325 57.8468C48.4536 59.1944 49.5783 60.4467 50.6604 61.593L35.6933 59.4513L36.4681 49.4478ZM31.3611 69.768L9.04309 81.5655L10.1301 75.5716L10.158 75.4171L31.8071 64.0076L31.3611 69.768ZM32.1289 59.8563L10.9568 71.0146L12.7736 60.9965L32.9087 49.7881L32.4027 56.3227L32.1289 59.8563ZM32.7332 97.6723L34.4007 76.1406L55.2061 107.763L32.7332 97.6723ZM58.2396 90.8839L47.3897 73.7845L58.2396 75.0836V90.8839ZM58.2396 71.5356L44.1235 69.8456C43.4487 69.7661 42.7866 70.0799 42.424 70.6556C42.0615 71.231 42.0626 71.9636 42.4271 72.5383L58.2396 97.4588V105.965L34.8446 70.4071L35.4207 62.9709L54.8534 65.7515C56.3189 67.1116 57.507 68.1215 58.2394 68.7246V71.5356H58.2396ZM60.1139 65.6958C55.6662 61.9446 38.9984 46.83 38.9984 31.0302C38.9982 19.3869 48.4707 9.91449 60.1139 9.91449C71.7571 9.91449 81.2296 19.3869 81.2296 31.0302C81.2296 46.83 64.5616 61.9448 60.1139 65.6958ZM61.7623 109.125V101.307L67.0277 106.761L61.7623 109.125ZM70.4435 105.227L61.7623 96.2354V74.6786L76.4744 68.2755L85.5402 75.3543L87.2687 97.6723L70.4435 105.227ZM87.4839 54.8325L93.5905 53.4045L97.9212 55.8152L100.317 57.1493L87.8781 59.9255L87.4839 54.8325ZM90.7958 97.5929L89.4207 79.8391L112.047 107.135L90.7958 97.5929ZM88.9494 73.7507L88.4708 67.5703L88.4507 67.3085L113.69 96.6263L115.309 105.55L88.9494 73.7507Z" fill="#0A1B33"/>
<path d="M60.1139 20.1445C59.1413 20.1445 58.3526 20.9329 58.3526 21.9058C58.3526 22.8787 59.1413 23.6671 60.1139 23.6671C64.174 23.6671 67.477 26.9701 67.477 31.0302C67.477 35.09 64.174 38.3933 60.1139 38.3933C56.0539 38.3933 52.7508 35.0903 52.7508 31.0302C52.7508 29.0879 53.5004 27.2554 54.8616 25.8697C55.5434 25.176 55.5336 24.0608 54.8396 23.3793C54.1456 22.6975 53.0304 22.7071 52.3489 23.4013C50.3365 25.4495 49.2284 28.1589 49.2284 31.0302C49.2284 37.0325 54.1116 41.9159 60.1142 41.9159C66.1167 41.9159 70.9999 37.0325 70.9999 31.0302C70.9997 25.0276 66.1165 20.1445 60.1139 20.1445Z" fill="#F67538"/>
</svg>
