<svg width="35" height="35" viewBox="0 0 35 35" fill="none" xmlns="http://www.w3.org/2000/svg">
<path d="M31.5 16.625V14.875C31.5 14.7385 31.4685 14.6055 31.4073 14.483L27.9072 7.483C27.7585 7.18725 27.4557 7 27.125 7H6.125C5.79425 7 5.48975 7.18725 5.34275 7.483L1.84275 14.483C1.7815 14.6038 1.75 14.7385 1.75 14.875V16.625C1.75 18.053 2.43775 19.3235 3.5 20.1232V31.5H2.625C2.142 31.5 1.75 31.892 1.75 32.375C1.75 32.858 2.142 33.25 2.625 33.25H30.625C31.108 33.25 31.5 32.858 31.5 32.375C31.5 31.892 31.108 31.5 30.625 31.5H29.75V20.1232C30.8122 19.3235 31.5 18.0547 31.5 16.625V16.625ZM20.125 19.25C18.6777 19.25 17.5 18.0723 17.5 16.625V15.75H22.75V16.625C22.75 18.0723 21.5723 19.25 20.125 19.25ZM3.5 16.625V15.75H8.75V16.625C8.75 18.0723 7.57225 19.25 6.125 19.25C4.67775 19.25 3.5 18.0723 3.5 16.625ZM15.75 8.75V14H10.745L12.0575 8.75H15.75ZM21.1925 8.75L22.505 14H17.5V8.75H21.1925ZM10.5 15.75H15.75V16.625C15.75 18.0723 14.5723 19.25 13.125 19.25C11.6777 19.25 10.5 18.0723 10.5 16.625V15.75ZM24.5 15.75H29.75V16.625C29.75 18.0723 28.5723 19.25 27.125 19.25C25.6777 19.25 24.5 18.0723 24.5 16.625V15.75ZM29.2092 14H24.3075L22.995 8.75H26.5842L29.2092 14ZM6.66575 8.75H10.255L8.9425 14H4.04075L6.66575 8.75ZM5.25 20.9125C5.5335 20.9702 5.82575 21 6.125 21C7.55475 21 8.827 20.3105 9.625 19.2465C10.423 20.3105 11.6953 21 13.125 21C14.5547 21 15.827 20.3105 16.625 19.2465C17.2568 20.0865 18.1825 20.6938 19.25 20.9108V31.4983H5.25V20.9108V20.9125ZM28 31.5H21V20.9125C22.0675 20.6955 22.9932 20.0882 23.625 19.2482C24.423 20.3122 25.6953 21.0018 27.125 21.0018C27.4243 21.0018 27.7165 20.972 28 20.9143V31.5017V31.5Z" fill="#0A1B33"/>
<path d="M24.5 25.375C24.5 25.858 24.108 26.25 23.625 26.25C23.142 26.25 22.75 25.858 22.75 25.375C22.75 24.892 23.142 24.5 23.625 24.5C24.108 24.5 24.5 24.892 24.5 25.375Z" fill="#0A1B33"/>
<path d="M7.87501 26.25C7.65101 26.25 7.42701 26.1642 7.25551 25.9945C6.91426 25.6532 6.91426 25.0985 7.25551 24.7572L9.00551 23.0072C9.34676 22.666 9.90151 22.666 10.2428 23.0072C10.584 23.3485 10.584 23.9032 10.2428 24.2445L8.49276 25.9945C8.32126 26.166 8.09726 26.25 7.87326 26.25H7.87501Z" fill="#0A1B33"/>
<path d="M9.62501 29.75C9.40101 29.75 9.17701 29.6642 9.00551 29.4945C8.66426 29.1532 8.66426 28.5985 9.00551 28.2572L14.2555 23.0072C14.5968 22.666 15.1515 22.666 15.4928 23.0072C15.834 23.3485 15.834 23.9032 15.4928 24.2445L10.2428 29.4945C10.0713 29.666 9.84726 29.75 9.62326 29.75H9.62501Z" fill="#0A1B33"/>
<path d="M14.875 29.75C14.651 29.75 14.427 29.6642 14.2555 29.4945C13.9143 29.1532 13.9143 28.5985 14.2555 28.2572L16.0055 26.5072C16.3468 26.166 16.9015 26.166 17.2428 26.5072C17.584 26.8485 17.584 27.4032 17.2428 27.7445L15.4928 29.4945C15.3213 29.666 15.0973 29.75 14.8733 29.75H14.875Z" fill="#0A1B33"/>
</svg>
