<svg width="45" height="32" viewBox="0 0 45 32" fill="none" xmlns="http://www.w3.org/2000/svg">
<rect width="45" height="31.1538" rx="8" fill="#0A1B33"/>
<path d="M20.0583 10.5705L18.4474 20.3598H20.9876L22.5985 10.5705H20.0583Z" fill="white"/>
<path d="M34.7419 10.5705C34.1223 10.5705 33.6886 10.7564 33.4408 11.3759L29.6614 20.4217H32.3255C32.3255 20.4217 32.7592 19.1826 32.8832 18.9347C33.1929 18.9347 35.7332 18.9347 36.1049 18.9347C36.1669 19.3065 36.4147 20.4217 36.4147 20.4217H38.7691L36.7245 10.5705H34.7419ZM33.5647 16.8901C33.7506 16.3325 34.556 14.164 34.556 14.164C34.556 14.164 34.7419 13.6064 34.8658 13.2347L35.0517 14.1021C35.0517 14.1021 35.5473 16.4564 35.6712 16.9521H33.5647V16.8901Z" fill="white"/>
<path d="M27.679 14.5358C26.8116 14.1021 26.2539 13.7923 26.2539 13.2966C26.2539 12.8629 26.6876 12.4292 27.679 12.4292C28.4844 12.4292 29.104 12.6151 29.5996 12.801L29.8475 12.9249L30.2192 10.8183C29.7236 10.6324 28.9181 10.3846 27.9268 10.3846C25.4485 10.3846 23.6517 11.7477 23.6517 13.6064C23.6517 15.0314 24.8909 15.8369 25.8822 16.2706C26.8735 16.7662 27.1833 17.076 27.1833 17.5097C27.1833 18.1912 26.3779 18.4391 25.6344 18.4391C24.643 18.4391 24.0854 18.3152 23.218 17.9434L22.9082 17.7575L22.5365 19.926C23.1561 20.1739 24.2093 20.4217 25.3865 20.4217C28.0507 20.4217 29.7855 19.1206 29.7855 17.076C29.8475 16.0847 29.1659 15.2173 27.679 14.5358Z" fill="white"/>
<path d="M16.3407 10.5705L13.8624 17.2619L13.6146 15.8988L12.7472 11.3759C12.6232 10.7564 12.1276 10.5705 11.57 10.5705H7.54274C7.48078 10.5705 7.48078 10.6324 7.41882 10.6324C7.41882 10.6944 7.41882 10.7564 7.48078 10.7564C8.10035 10.9422 8.65797 11.1281 9.15363 11.3759C9.71125 11.6238 10.083 12.1194 10.2689 12.677L12.3135 20.3598H14.9776L18.9429 10.5705H16.3407V10.5705Z" fill="white"/>
</svg>
